<svg xmlns="http://www.w3.org/2000/svg" width="35" height="35" viewBox="0 0 35 35">
    <g fill="none" fill-rule="evenodd">
        <path fill="#4D6FA9" fill-rule="nonzero" d="M17.27 1C8.3 1 1 8.35 1 17.385c0 9.034 7.3 16.384 16.27 16.384 8.973 0 16.272-7.35 16.272-16.384C33.542 8.35 26.242 1 17.27 1z"/>
        <path fill="#FFF" d="M21.497 8.5h-3.305c-3.313.011-3.746 2.387-3.748 4.463a.266.266 0 0 0-.006.06v1.457H12.17a.252.252 0 0 0-.249.255v3.595c0 .14.112.255.249.255h2.268v7.887c0 .141.111.255.248.255h3.31a.252.252 0 0 0 .248-.255v-7.887h3.252a.252.252 0 0 0 .249-.255v-3.594a.252.252 0 0 0-.249-.256h-3.5v-1.932h3.5a.252.252 0 0 0 .249-.255V8.755a.252.252 0 0 0-.248-.255z"/>
    </g>
</svg>
