<svg xmlns="http://www.w3.org/2000/svg" width="35" height="35" viewBox="0 0 35 35">
    <g fill="none" fill-rule="evenodd">
        <path fill="#2796D7" fill-rule="nonzero" d="M17.316 1.037c-8.972 0-16.27 7.35-16.27 16.385 0 9.034 7.298 16.384 16.27 16.384s16.271-7.35 16.271-16.384c0-9.035-7.3-16.385-16.271-16.385z"/>
        <path fill="#FFF" d="M10.753 14.647h3.587v9.608h-3.587v-9.608zm1.758-1.533c-1.003 0-1.816-.761-1.816-1.7s.813-1.7 1.816-1.7c1.002 0 1.815.761 1.815 1.7s-.813 1.7-1.815 1.7zm10.844 1.316c.993 0 1.77.303 2.33.909.562.606.843 1.543.843 2.81v6.106h-3.605v-5.283c0-.604-.108-1.03-.326-1.28-.217-.25-.523-.376-.916-.376a1.29 1.29 0 0 0-1.058.507c-.27.338-.405.943-.405 1.818v4.614H16.63v-9.608h3.34v1.565c.5-.64 1.005-1.096 1.516-1.37.511-.275 1.134-.412 1.868-.412z"/>
    </g>
</svg>
