<svg xmlns="http://www.w3.org/2000/svg" width="35" height="35" viewBox="0 0 35 35">
    <g fill="none" fill-rule="evenodd">
        <path fill="#65BBF2" fill-rule="nonzero" d="M17.27 1C8.3 1 1 8.35 1 17.385c0 9.034 7.3 16.384 16.27 16.384 8.973 0 16.272-7.35 16.272-16.384C33.542 8.35 26.242 1 17.27 1z"/>
        <path fill="#FFF" d="M24.283 12.72a3.2 3.2 0 0 0 1.504-1.824s-.904.672-2.136.75l-.022.013a3.399 3.399 0 0 0-2.543-1.148c-1.905 0-3.449 1.585-3.449 3.541 0 .297.036.585.103.86l-.016-.025s-3.695.217-7.178-3.695c0 0-1.54 2.687 1.097 4.742-.578.099-1.597-.435-1.597-.435s.057 2.825 2.79 3.517c-.443.118-1.27.157-1.54.04 0 0 .404 2.152 3.195 2.528-.712.415-2.04 1.68-5.042 1.442 0 0 2.156 1.817 6.158 1.56 4.003-.256 6.909-3.022 8.082-5.946 1.174-2.923.848-4.588.848-4.588s.98-.529 1.655-1.793c-.312.096-1.467.386-1.897.493a1.214 1.214 0 0 1-.012-.031z"/>
    </g>
</svg>
